:SAMPLES-PER-SECOND 30
:FRAME-RANGE 1-668
:FULLY-SPECIFIED
:DEGREES
648
root  -3.06524 38.4331 44.638 178.131 39.4918 178.613
RightUpLeg  -20.5902 5.43665 -8.84638
RightLeg  61.642 -3.29514 -7.11879
RightFoot  -2.7925 -0.285861 3.56797
RightToes  5.38607e-012 1.2921e-014 -6.02303e-014
Spine  -4.82304 -0.879974 -1.72772
Spine1  6.36968 -1.53114 -1.14613
HEad  7.16794 38.9336 -4.35618
LeftShoulder1  0.874858 0.241301 -22.4839
LeftArm  -2.72483 2.68721 -54.3923
LeftForeArm  36.5425 -1.44904 -11.9517
LeftHand  -0.0355199 4.99859 3.51347
RightShoulder  1.70827 1.69114 28.2289
RightArm  -26.0575 6.52516 49.5459
RightForeArm  70.6884 -5.14307 2.70636
RightHand  0.200799 -6.85445 -17.1478
LeftUpLeg  -7.49467 -1.54629 -13.7997
LeftLeg  19.2285 16.3917 6.35521
LeftFoot  -12.3502 0.155927 9.23506
LeftToes  -6.11857e-011 5.00151e-011 -2.22593e-011
649
root  -2.369 38.5425 44.0306 178.912 35.5997 179.585
RightUpLeg  -21.9265 6.68794 -8.92461
RightLeg  54.8368 -5.78664 -9.14806
RightFoot  -4.88021 -0.181315 2.62299
RightToes  5.38607e-012 1.2921e-014 -6.02303e-014
Spine  -4.7744 -1.65103 -2.30008
Spine1  6.06234 -2.38906 -0.191573
HEad  6.1531 37.0322 -4.91513
LeftShoulder1  1.07004 -0.467577 -22.2852
LeftArm  -0.152535 -0.0191482 -56.5027
LeftForeArm  36.5192 -4.57672 -11.9195
LeftHand  -0.0531108 4.31173 3.53868
RightShoulder  1.54888 1.18502 28.5223
RightArm  -27.0845 4.53114 46.6715
RightForeArm  70.6988 -5.06477 2.24248
RightHand  0.223914 -7.03459 -16.9424
LeftUpLeg  -5.38912 -1.40882 -12.8918
LeftLeg  18.32 12.7874 5.32051
LeftFoot  -13.3066 0.239384 9.2603
LeftToes  -6.11857e-011 5.00151e-011 -2.22593e-011
650
root  -1.69583 38.6811 43.4008 179.836 32.0852 -179.42
RightUpLeg  -22.6017 8.29064 -8.94548
RightLeg  45.696 -7.90081 -8.87539
RightFoot  -5.7978 -0.209985 3.52081
RightToes  5.38607e-012 1.2921e-014 -6.02303e-014
Spine  -5.14764 -2.21792 -2.47465
Spine1  6.2504 -2.98902 0.771636
HEad  4.87721 35.1589 -5.50418
LeftShoulder1  1.25418 -1.17577 -21.8936
LeftArm  3.89239 -2.48238 -58.7589
LeftForeArm  34.8488 -7.81469 -11.5073
LeftHand  -0.0603607 4.10613 3.73573
RightShoulder  1.39559 0.712202 28.7509
RightArm  -28.2742 2.59633 44.2026
RightForeArm  71.0826 -4.93922 1.58734
RightHand  0.254384 -7.25121 -16.896
LeftUpLeg  -3.47352 -1.21612 -11.6645
LeftLeg  17.2106 9.28775 4.34856
LeftFoot  -13.9553 0.300509 9.46242
LeftToes  -6.11857e-011 5.00151e-011 -2.22593e-011
651
root  -1.0562 38.7934 42.7592 -179.189 29.0858 -178.498
RightUpLeg  -22.7925 9.72784 -8.92685
RightLeg  34.8383 -9.16001 -7.03105
RightFoot  -6.04551 -0.222897 3.92807
RightToes  5.38607e-012 1.2921e-014 -6.02303e-014
Spine  -5.55663 -2.63894 -2.20269
Spine1  6.48336 -3.37841 1.42205
HEad  3.58371 33.3595 -5.92659
LeftShoulder1  1.36672 -1.65632 -21.4255
LeftArm  7.5043 -4.43495 -60.891
LeftForeArm  33.8368 -10.7673 -10.541
LeftHand  -0.0620546 4.0018 3.63236
RightShoulder  1.32517 0.475099 29.0638
RightArm  -29.3171 0.827312 41.9749
RightForeArm  71.6858 -4.80704 0.947837
RightHand  0.290458 -7.54331 -16.599
LeftUpLeg  -1.87026 -1.07987 -10.318
LeftLeg  16.1853 6.25432 3.6351
LeftFoot  -14.5963 0.356633 9.43346
LeftToes  -6.11857e-011 5.00151e-011 -2.22593e-011
652
root  -0.431618 38.8638 42.0973 -178.411 26.9293 -177.923
RightUpLeg  -22.5994 9.71481 -8.8378
RightLeg  23.2094 -7.5922 -3.76314
RightFoot  -5.65104 -0.26709 4.59702
RightToes  5.38607e-012 1.2921e-014 -6.02303e-014
Spine  -5.74988 -2.8693 -2.01105
Spine1  6.5079 -3.5708 1.98383
HEad  2.52159 32.0667 -6.21508
LeftShoulder1  1.41166 -1.84087 -21.3044
LeftArm  11.6804 -5.55481 -62.1666
LeftForeArm  31.8504 -13.9221 -9.05035
LeftHand  -0.0608867 3.88749 3.53206
RightShoulder  1.29207 0.357511 29.2852
RightArm  -30.4904 -0.507431 40.2283
RightForeArm  73.0655 -4.61048 0.117184
RightHand  0.333357 -7.84467 -16.61
LeftUpLeg  -0.411158 -0.626765 -9.01441
LeftLeg  15.2819 3.72306 2.8284
LeftFoot  -15.3923 0.423084 9.31861
LeftToes  -6.11857e-011 5.00151e-011 -2.22593e-011
653
root  0.206816 38.8439 41.4014 -177.946 25.3762 -177.847
RightUpLeg  -22.1958 5.20481 -7.52615
RightLeg  12.8451 -1.00174 -0.742343
RightFoot  -5.24196 -0.418803 7.18032
RightToes  5.38607e-012 1.2921e-014 -6.02303e-014
Spine  -6.0585 -3.08284 -2.03435
Spine1  6.70811 -3.70147 2.17306
HEad  1.89127 31.3069 -6.40994
LeftShoulder1  1.42261 -1.88694 -21.2699
LeftArm  15.8334 -5.93221 -62.506
LeftForeArm  28.5698 -16.8218 -7.31933
LeftHand  -0.0609937 4.04639 3.64292
RightShoulder  1.26604 0.28608 29.2568
RightArm  -32.1567 -1.41006 39.3169
RightForeArm  75.0624 -4.31851 -1.11231
RightHand  0.378722 -8.24984 -16.1566
LeftUpLeg  0.935247 -0.399974 -8.24068
LeftLeg  14.8225 1.9604 2.37796
LeftFoot  -16.4309 0.500563 9.01573
LeftToes  -6.11857e-011 5.00151e-011 -2.22593e-011
654
root  0.884133 38.7403 40.6502 -177.943 24.1756 -177.924
RightUpLeg  -21.5518 -0.757032 -5.02307
RightLeg  5.19341 9.40452 -0.217506
RightFoot  -5.43066 -0.671288 12.2402
RightToes  5.38607e-012 1.2921e-014 -6.02303e-014
Spine  -6.44225 -3.24888 -2.06766
Spine1  7.25562 -3.79718 2.10638
HEad  1.41011 30.9779 -6.6288
LeftShoulder1  1.41606 -1.86917 -21.2352
LeftArm  17.73 -5.88711 -62.1505
LeftForeArm  26.586 -18.4329 -6.23829
LeftHand  -0.0645153 3.98853 3.82074
RightShoulder  1.2473 0.239167 29.1895
RightArm  -33.6276 -2.08203 38.7333
RightForeArm  76.5456 -4.06627 -2.21773
RightHand  0.404257 -8.56552 -15.5457
LeftUpLeg  2.44936 -0.341044 -7.64684
LeftLeg  15.1068 0.785001 2.12525
LeftFoot  -17.876 0.59645 8.54517
LeftToes  -6.11857e-011 5.00151e-011 -2.22593e-011
655
root  1.56794 38.5923 39.8604 -178.138 23.2279 -178.031
RightUpLeg  -21.5797 -1.23363 -4.0143
RightLeg  2.64881 13.5676 -0.329096
RightFoot  -6.7442 -0.55475 12.625
RightToes  5.38607e-012 1.2921e-014 -6.02303e-014
Spine  -6.63216 -3.32379 -1.96522
Spine1  7.54558 -3.84996 2.01994
HEad  1.62022 30.8398 -6.97777
LeftShoulder1  1.3851 -1.73259 -21.3702
LeftArm  17.8727 -5.65732 -61.1957
LeftForeArm  25.7081 -18.316 -6.36521
LeftHand  -0.0651745 4.15945 4.38088
RightShoulder  1.19652 0.0897104 29.2346
RightArm  -34.4972 -2.5117 38.1281
RightForeArm  77.3317 -3.91498 -2.89992
RightHand  0.415531 -8.79419 -14.9408
LeftUpLeg  4.04916 -1.00347 -7.3393
LeftLeg  15.7931 0.629304 2.27635
LeftFoot  -19.4783 0.668077 7.73135
LeftToes  -6.11857e-011 5.00151e-011 -2.22593e-011
656
root  2.2823 38.3951 39.0114 -178.47 22.5176 -178.186
RightUpLeg  -22.2353 -0.446438 -3.5025
RightLeg  5.68106 12.9564 0.755304
RightFoot  -7.15167 -0.545363 13.5149
RightToes  5.38607e-012 1.2921e-014 -6.02303e-014
Spine  -6.80042 -3.31653 -1.8824
Spine1  7.78376 -3.85616 1.90149
HEad  2.52563 30.867 -7.36645
LeftShoulder1  1.32375 -1.49533 -21.455
LeftArm  14.351 -5.23752 -60.0724
LeftForeArm  28.2221 -16.1062 -7.77895
LeftHand  -0.0666071 4.15872 4.5258
RightShoulder  1.15276 -0.0269391 29.1427
RightArm  -34.8371 -2.89343 37.738
RightForeArm  77.3486 -3.86969 -3.15598
RightHand  0.400513 -8.78676 -14.491
LeftUpLeg  5.45889 -2.03655 -7.07451
LeftLeg  17.3718 0.823294 2.24268
LeftFoot  -21.0613 0.661872 6.28703
LeftToes  -6.11857e-011 5.00151e-011 -2.22593e-011
657
root  2.95195 38.423 38.1497 -178.679 21.6221 -177.827
RightUpLeg  -22.6537 3.30495 -3.19384
RightLeg  9.77067 10.5592 0.731975
RightFoot  -2.82527 -0.800479 10.4642
RightToes  5.38607e-012 1.2921e-014 -6.02303e-014
Spine  -7.07941 -3.32074 -1.05501
Spine1  8.38422 -4.06864 2.23236
HEad  3.90529 30.9472 -7.53704
LeftShoulder1  1.28096 -1.30762 -21.6609
LeftArm  8.42192 -4.44541 -58.458
LeftForeArm  32.3258 -12.2654 -9.78997
LeftHand  -0.0659089 4.26578 4.86247
RightShoulder  1.09834 -0.18278 29.143
RightArm  -34.2569 -3.29137 37.4319
RightForeArm  76.6088 -3.9794 -2.70322
RightHand  0.376745 -8.651 -14.2552
LeftUpLeg  7.41053 -3.97592 -6.45049
LeftLeg  17.7581 1.64411 2.1162
LeftFoot  -20.9542 0.518485 4.66521
LeftToes  -6.11857e-011 5.00151e-011 -2.22593e-011
